<?xml version="1.0" standalone="no"?>
<!DOCTYPE svg PUBLIC "-//W3C//DTD SVG 20010904//EN"
 "http://www.w3.org/TR/2001/REC-SVG-20010904/DTD/svg10.dtd">
<svg version="1.0" xmlns="http://www.w3.org/2000/svg"
 width="300.000000pt" height="300.000000pt" viewBox="0 0 300.000000 300.000000"
 preserveAspectRatio="xMidYMid meet">
<metadata>
Created by potrace 1.11, written by Peter Selinger 2001-2013
</metadata>
<g transform="translate(0.000000,300.000000) scale(0.100000,-0.100000)"
fill="#000000" stroke="none">
<path d="M2166 2214 c-174 -42 -336 -190 -426 -387 -131 -291 -140 -699 -21
-996 53 -132 158 -269 256 -334 51 -33 140 -72 185 -81 19 -3 45 -8 58 -10 12
-3 22 -2 23 2 1 10 1 154 0 170 -1 6 -9 12 -19 12 -34 0 -121 51 -162 96 -73
79 -129 229 -148 398 -4 34 -7 142 -6 241 1 242 24 370 92 515 36 76 123 161
192 187 l54 20 1 79 c1 81 -2 105 -14 103 -3 0 -32 -7 -65 -15z"/>
<path d="M2360 2137 l0 -95 28 -6 c203 -47 313 -305 313 -731 0 -391 -104
-644 -287 -702 l-54 -17 0 -92 0 -92 33 4 c243 35 445 242 531 544 34 121 37
145 41 335 4 239 -24 389 -106 561 -48 102 -115 192 -188 251 -62 51 -175 108
-236 118 -22 4 -48 9 -57 12 -16 4 -18 -5 -18 -90z"/>
<path d="M407 1538 c-10 -8 -33 -73 -56 -158 -68 -248 -220 -848 -235 -926 -2
-10 -9 -37 -15 -59 -5 -22 -13 -53 -16 -70 -2 -16 -7 -43 -10 -59 -10 -50 43
-99 128 -120 57 -14 78 12 92 112 2 15 18 90 35 167 17 77 33 149 36 160 17
87 27 115 38 106 6 -5 40 -24 75 -41 51 -25 80 -33 139 -36 90 -4 125 11 204
88 52 51 55 53 113 54 128 2 234 50 322 147 57 62 101 151 87 175 -14 23 -58
44 -77 36 -8 -3 -31 -31 -51 -63 -66 -108 -139 -161 -221 -161 l-45 0 16 38
c62 145 105 354 90 436 -9 48 -85 129 -152 162 -83 40 -156 26 -266 -54 l-48
-34 -62 56 c-62 57 -90 67 -121 44z m373 -158 c55 -29 54 -110 -2 -310 -23
-79 -35 -103 -49 -94 -21 13 -102 -52 -128 -104 -11 -20 -9 -26 20 -53 17 -16
30 -31 28 -33 -38 -29 -52 -33 -87 -24 -52 15 -83 38 -99 75 -12 30 -11 44 7
121 26 109 66 235 90 281 32 63 139 151 183 151 10 0 27 -5 37 -10z"/>
<path d="M1385 769 c-40 -11 -103 -77 -120 -124 -22 -65 2 -144 58 -191 88
-74 203 -58 272 39 24 34 29 51 30 98 0 48 -5 65 -30 101 -50 71 -129 101
-210 77z"/>
</g>
</svg>
